<?xml version="1.0" encoding="UTF-8"?>
<svg width="70px" height="185px" viewBox="0 0 70 185" version="1.1" xmlns="http://www.w3.org/2000/svg" xmlns:xlink="http://www.w3.org/1999/xlink">
    <g id="LR" stroke="none" stroke-width="1" fill="none" fill-rule="evenodd">
        <g id="LT" transform="translate(34.500000, 51.500000) scale(-1, 1) translate(-34.500000, -51.500000) translate(3.000000, 0.000000)" fill="#FF51A6">
            <path d="M33.8791926,103 C52.5901541,103 61.7797042,90.0697256 61.7797042,72.5830328 C61.7797042,67.2630812 64.6910861,0 38.329707,0 C11.968328,0 4.54747351e-13,67.9662947 4.54747351e-13,71.3375418 C4.54747351e-13,88.8242346 15.1682312,103 33.8791926,103 Z" id="Oval"></path>
        </g>
        <g id="LH" transform="translate(17.000000, 131.000000)" fill="#FF51A6">
            <path d="M0,0 L34,0 L34,18 C34,35.3333333 28.3333333,44 17,44 C5.66666667,44 0,35.3333333 0,18 L0,0 Z" id="Rectangle"></path>
        </g>
    </g>
</svg>
